<?xml version="1.0" standalone="no"?>
<!DOCTYPE svg PUBLIC "-//W3C//DTD SVG 20010904//EN"
 "http://www.w3.org/TR/2001/REC-SVG-20010904/DTD/svg10.dtd">
<svg version="1.0" xmlns="http://www.w3.org/2000/svg"
 width="512.000000pt" height="512.000000pt" viewBox="0 0 512.000000 512.000000"
 preserveAspectRatio="xMidYMid meet">
<metadata>
Created for GoalUp pinned tab
</metadata>
<g transform="translate(0.000000,512.000000) scale(0.100000,-0.100000)"
fill="#000000" stroke="none">
<path d="M2415 5109 c-676 -61 -1280 -404 -1680 -945 -235 -315 -381 -665 -441
-1059 -23 -154 -23 -476 0 -630 104 -692 481 -1272 1061 -1648 315 -205 650
-329 1031 -380 154 -20 476 -15 632 10 825 129 1526 660 1869 1418 92 201 166
456 194 670 16 132 16 468 0 600 -85 654 -402 1216 -915 1611 -465 356 -1058
520 -1651 453z m520 -1059 c186 -47 338 -135 465 -269 149 -157 235 -337 268
-558 15 -105 15 -133 0 -238 -48 -340 -231 -612 -530 -786 -332 -193 -764
-186 -1083 18 -84 54 -208 171 -267 253 -123 171 -192 383 -205 635 -28 574
304 1027 853 1155 113 26 379 22 499 -10z"/>
<path d="M2460 3726 c-240 -52 -433 -223 -516 -456 -25 -71 -28 -94 -28 -225 0
-131 3 -154 28 -225 94 -264 325 -447 606 -476 370 -38 714 219 785 585 19 98
19 258 0 356 -71 367 -416 623 -785 585 -36 -3 -83 -14 -105 -24 l-40 -16 0
-315 0 -315 175 0 175 0 0 170 0 170 40 0 c93 0 201 -63 262 -151 52 -75 68
-132 68 -244 0 -85 -4 -109 -27 -164 -35 -83 -119 -171 -203 -212 -59 -29 -72
-31 -180 -31 -106 0 -121 2 -178 29 -36 16 -87 51 -115 80 -84 85 -87 98 -87
379 0 233 -1 242 -22 260 -33 28 -132 30 -226 5z"/>
</g>
</svg>
